<?xml version="1.0" encoding="UTF-8" standalone="no"?>
<svg
   xmlns:dc="http://purl.org/dc/elements/1.1/"
   xmlns:cc="http://creativecommons.org/ns#"
   xmlns:rdf="http://www.w3.org/1999/02/22-rdf-syntax-ns#"
   xmlns:svg="http://www.w3.org/2000/svg"
   xmlns="http://www.w3.org/2000/svg"
   xmlns:sodipodi="http://sodipodi.sourceforge.net/DTD/sodipodi-0.dtd"
   xmlns:inkscape="http://www.inkscape.org/namespaces/inkscape"
   inkscape:version="1.0beta1 (32d4812, 2019-09-19)"
   height="74"
   width="165.132"
   sodipodi:docname="Sports_direct_2020.svg"
   xml:space="preserve"
   viewBox="0 0 165.132 74"
   y="0px"
   x="0px"
   id="Layer_1"
   version="1.1"><metadata
   id="metadata848">
  <rdf:RDF>
    <cc:Work
       rdf:about="">
      <dc:format>image/svg+xml</dc:format>
      <dc:type
         rdf:resource="http://purl.org/dc/dcmitype/StillImage" />
      <dc:title></dc:title>
    </cc:Work>
  </rdf:RDF>
</metadata>
<defs
   id="defs846" />
<sodipodi:namedview
   inkscape:current-layer="Layer_1"
   inkscape:window-maximized="0"
   inkscape:window-y="23"
   inkscape:window-x="0"
   inkscape:cy="560"
   inkscape:cx="400"
   inkscape:zoom="0.35"
   showgrid="false"
   id="namedview844"
   inkscape:window-height="907"
   inkscape:window-width="1600"
   inkscape:pageshadow="2"
   inkscape:pageopacity="0"
   guidetolerance="10"
   gridtolerance="10"
   objecttolerance="10"
   borderopacity="1"
   inkscape:document-rotation="0"
   bordercolor="#666666"
   pagecolor="#ffffff" />

<style
   id="style833"
   type="text/css">
	.st0{fill:#0000ED;}
	.st1{fill:#ED0000;}
	.st2{fill:#FFFFFF;}
</style>

<g
   transform="translate(-0.434,-0.5)"
   id="g841">
	<polygon
   id="polygon835"
   points="165.566,35.348 165.566,0.5 0.434,0.5 0.434,35.348 "
   class="st0" />

	<polygon
   id="polygon837"
   points="165.566,74.5 165.566,39.652 0.434,39.652 0.434,74.5 "
   class="st1" />

	<path
   inkscape:connector-curvature="0"
   id="path839"
   d="M 47.728,5.476 H 38.279 L 33.963,30.37 h 7.119 l 1.338,-7.809 h 3.712 c 8.889,0 11.261,-5.437 11.261,-9.924 0,-5.824 -4.789,-7.161 -9.665,-7.161 z M 46.304,17.471 H 43.37 l 1.122,-6.904 h 3.107 c 1.38,0 3.107,0.561 3.107,3.018 0,1.901 -1.122,3.886 -4.402,3.886 z M 73.099,4.87 c -9.449,0 -13.722,7.38 -13.722,14.757 0,7.291 4.36,11.348 11.866,11.348 9.405,0 13.678,-7.378 13.678,-14.715 0,-7.295 -4.358,-11.39 -11.822,-11.39 z m -1.727,20.453 c -2.502,0 -4.573,-1.424 -4.573,-6.084 0,-4.271 1.596,-8.715 6.214,-8.715 2.459,0 4.573,1.424 4.573,6.137 -0.001,4.217 -1.641,8.662 -6.214,8.662 z M 110.418,12.25 c 0,-5.653 -4.745,-6.772 -9.276,-6.772 H 91.09 L 86.819,30.37 h 7.119 l 1.551,-9.1 h 2.978 l 3.581,9.1 h 7.293 l -4.36,-10.053 c 3.842,-1.208 5.437,-4.579 5.437,-8.067 z m -10.871,4.271 h -3.242 l 1.079,-6.127 h 3.236 c 1.38,0 3.02,0.516 3.02,2.675 0.006,1.467 -0.728,3.452 -4.093,3.452 z m 34.041,-5.308 h -6.808 l -3.278,19.157 h -7.128 l 3.323,-19.157 h -6.819 l 0.95,-5.737 h 20.797 c 0,0 -1.037,5.737 -1.037,5.737 z m 0.26,16.74 2.455,-4.703 c 2.17,1.372 4.682,2.105 7.248,2.116 1.693,0 3.968,-0.345 3.968,-2.286 0,-1.122 -0.732,-1.693 -2.54,-2.116 l -2.375,-0.561 c -3.623,-0.863 -6.349,-2.804 -6.349,-6.732 0,-3.149 1.467,-5.437 3.581,-6.901 2.072,-1.469 4.834,-1.814 6.732,-1.814 2.846,0 6.429,0.821 8.889,2.804 l -2.54,4.703 c -2.719,-1.812 -4.868,-2.116 -6.817,-2.116 -1.598,0 -3.28,0.423 -3.28,2.072 0,0.993 0.605,1.509 2.675,2.072 l 2.891,0.777 c 4.055,1.079 6.084,3.536 6.084,6.643 0,5.35 -4.315,8.975 -10.961,8.975 -3.062,0 -6.946,-0.605 -9.663,-2.935 z m -123.313,0 2.459,-4.703 c 2.17,1.371 4.682,2.105 7.248,2.116 1.693,0 3.97,-0.345 3.97,-2.286 0,-1.122 -0.734,-1.693 -2.54,-2.116 L 19.293,20.403 C 15.67,19.546 12.95,17.599 12.95,13.671 c 0,-3.149 1.467,-5.437 3.581,-6.901 2.072,-1.469 4.832,-1.814 6.73,-1.814 2.849,0 6.429,0.821 8.889,2.804 l -2.54,4.703 c -2.717,-1.812 -4.868,-2.116 -6.817,-2.116 -1.596,0 -3.278,0.423 -3.278,2.072 0,0.993 0.603,1.509 2.675,2.072 l 2.891,0.777 c 4.055,1.079 6.082,3.536 6.082,6.643 0,5.35 -4.313,8.975 -10.958,8.975 -3.064,0 -6.946,-0.605 -9.665,-2.935 z M 32.713,46.526 C 30.556,45.32 27.321,44.621 23.695,44.621 h -8.11 l -4.358,24.903 h 11.174 c 10.311,0 14.971,-6.772 14.971,-13.936 10e-4,-4.228 -1.553,-7.335 -4.659,-9.062 z M 22.486,64.303 h -2.933 l 2.54,-14.452 h 2.328 c 2.978,0 5.392,1.509 5.392,5.866 0.009,3.71 -1.5,8.586 -7.327,8.586 z m 17.259,5.221 4.358,-24.897 h 7.422 l -4.358,24.897 z m 64.972,-11.045 c 0,-6.214 3.539,-14.455 13.678,-14.455 6.214,0 9.881,2.804 11.045,7.162 l -6.514,2.116 c -0.69,-2.804 -2.328,-3.581 -4.656,-3.581 -4.656,0 -5.998,5.092 -5.998,8.717 0,3.494 1.424,6.04 4.703,6.04 2.891,0 4.656,-1.511 5.524,-3.625 l 5.911,2.417 c -1.63,3.492 -5.177,6.857 -11.733,6.857 -7.725,0 -11.953,-4.055 -11.953,-11.64 z m 49.057,-8.112 h -7.414 l -3.365,19.157 h -7.327 l 3.365,-19.157 h -7.386 l 0.993,-5.74 h 22.133 l -0.993,5.74 z m -76.453,1.037 c 0,-5.653 -4.747,-6.772 -9.278,-6.772 h -10.52 l -4.391,24.892 h 7.335 l 1.596,-9.1 h 2.921 l 3.581,9.1 h 7.68 L 71.887,59.471 c 3.801,-1.338 5.441,-4.582 5.441,-8.067 z m -11.263,4.271 h -3.143 l 1.079,-6.127 h 3.149 c 1.382,0 3.02,0.516 3.02,2.675 0,1.467 -0.736,3.452 -4.099,3.452 z m 24.761,-5.695 -0.777,4.233 h 9.289 l -0.95,5.35 h -9.272 l -0.819,4.616 h 12.641 l -0.906,5.35 H 79.962 L 84.32,44.632 h 19.498 l -0.906,5.352 z"
   class="st2" />

</g>

</svg>
